<svg xmlns="http://www.w3.org/2000/svg" viewBox="0 0 427.3 427.3"><defs><style>.a{fill:#2d2d2d;}</style></defs><title>arrow-right</title><path class="a" d="M213.6,427.3C95.8,427.3,0,331.4,0,213.6A213.7,213.7,0,0,1,213.6,0,213.6,213.6,0,0,1,364.7,364.7,212.6,212.6,0,0,1,213.6,427.3Zm0-407.3C106.9,20,20,106.9,20,213.6s86.9,193.7,193.6,193.7,193.7-86.9,193.7-193.7S320.4,20,213.6,20Z"/><path class="a" d="M183.1,297.5a9.5,9.5,0,0,1-6.3-16.6l76.4-67.2-76.3-66.6a9.5,9.5,0,0,1-1-13.4,9.6,9.6,0,0,1,13.4-.9l84.6,73.7a9.6,9.6,0,0,1,0,14.3l-84.5,74.4A10.2,10.2,0,0,1,183.1,297.5Z"/></svg>